<?xml version="1.0" encoding="utf-8"?>
<!-- Generator: Adobe Illustrator 25.2.1, SVG Export Plug-In . SVG Version: 6.00 Build 0)  -->
<svg version="1.1" id="Layer_1" xmlns="http://www.w3.org/2000/svg" xmlns:xlink="http://www.w3.org/1999/xlink" x="0px" y="0px"
	 viewBox="0 0 1920 1200" style="enable-background:new 0 0 1920 1200;" xml:space="preserve">
<style type="text/css">
	.st0{fill-rule:evenodd;clip-rule:evenodd;fill:#FFFFFF;stroke:#FFFFFF;stroke-miterlimit:10;}
	.st1{fill-rule:evenodd;clip-rule:evenodd;fill:#28BCEF;}
	.st2{fill-rule:evenodd;clip-rule:evenodd;fill:#183D8A;}
</style>
<path class="st0" d="M1634.5,82.4c12.3,12.1,18.8,28.6,18.8,46.1c0,18.5-4.9,35.5-16,47.7c-10.9,12-29.4,21.1-60.1,21.1h-24.3v23.1
	h24.3c35.4,0,60.8-10.7,77.1-28.6c16.2-17.8,22-41,22-63.3c0-23.3-8.6-45.8-25.7-62.6c-17.2-16.8-42.1-27-73.5-27H0v23.1h1577.1
	C1603.4,61.9,1622.2,70.4,1634.5,82.4z"/>
<path class="st0" d="M1612.8,105.5c6.2,6.1,9.5,14.4,9.5,23.5c0,10.1-2.7,18.8-8.1,24.8c-5.3,5.8-14.6,10.8-31.5,10.8h-26.8v23.1
	h26.8c21.7,0,37.9-6.6,48.6-18.5c10.4-11.6,14.1-26.5,14.1-40.3c0-14.8-5.4-29.2-16.4-40c-11-10.8-26.9-17.1-46.2-17.1H0v23.1
	h1582.7C1596.9,94.9,1606.6,99.5,1612.8,105.5z"/>
<path class="st0" d="M1555.8,164.6h-55.2c-9.3,0-17.3,3.1-22.6,9.3c-5.1,5.9-6.7,13.1-6.7,19.1c0,7,2.6,14,8,19.2
	c5.4,5.3,12.9,8.1,21.3,8.1h52.2v-23.1h-52.2c-3.3,0-4.6-1-5.2-1.5c-0.6-0.6-1-1.5-1-2.8c0-2.3,0.6-3.5,1-4c0.2-0.2,0.5-0.5,1.1-0.7
	c0.7-0.3,1.9-0.6,4.1-0.6h55.2V164.6z"/>
<path class="st0" d="M1606.3,110.1c-5.4-5.3-12.9-8.1-21.3-8.1h-76.5c-35.4,0-60.8,10.7-77.1,28.6c-16.2,17.8-22,41-22,63.3
	c0,23.3,8.6,45.8,25.7,62.6c17.2,16.8,42.1,27,73.5,27H1920v-23.1h-411.5c-26.2,0-45.1-8.4-57.3-20.4
	c-12.3-12.1-18.8-28.6-18.8-46.1c0-18.5,4.9-35.5,16-47.7c10.9-12,29.4-21.1,60.1-21.1h76.5c3.2,0,4.6,1,5.2,1.5
	c0.6,0.6,1,1.5,1,2.8c0,2.3-0.6,3.5-1,3.9c-0.2,0.2-0.5,0.5-1.1,0.7c-0.7,0.3-2,0.6-4.1,0.6h-29.3l-3.5,0.1H1503
	c-21.7,0-37.9,6.6-48.6,18.4c-10.4,11.6-14.1,26.5-14.1,40.2c0,14.7,5.5,29.2,16.4,39.9c11,10.8,26.9,17.2,46.2,17.2h417v-23.1h-417
	c-14.2,0-23.9-4.5-30.1-10.6c-6.2-6.1-9.5-14.4-9.5-23.5c0-10,2.7-18.7,8.1-24.8c5.3-5.8,14.6-10.8,31.5-10.8h49.6l3.5-0.1h29
	c9.3,0,17.2-3.1,22.6-9.3c5.1-5.9,6.7-13.1,6.7-19.1C1614.3,122.4,1611.7,115.4,1606.3,110.1z"/>
<path class="st1" d="M1627.1,90.8c-10.5-10.3-25.6-16.4-44.4-16.4H0v18h1582.7c14.8,0,25.2,4.7,31.9,11.3
	c6.7,6.6,10.3,15.6,10.3,25.3c0,10.5-2.8,19.8-8.8,26.5c-5.8,6.5-15.9,11.7-33.3,11.7h-26.9v18h26.9c21.2,0,36.6-6.5,46.7-17.6
	c9.9-11,13.4-25.2,13.4-38.6C1642.8,114.8,1637.6,101.1,1627.1,90.8z"/>
<path class="st2" d="M1591.9,124.8c1.1,1.1,1.8,2.7,1.8,4.6c0,2.7-0.7,4.5-1.7,5.6c-0.7,0.8-2.5,2.2-7.1,2.2h-29.2l-25.9,0.1H1503
	c-21.2,0-36.6,6.5-46.7,17.6c-9.9,11-13.4,25.2-13.4,38.5c0,14.1,5.2,27.9,15.7,38.2c10.5,10.3,25.6,16.4,44.4,16.4h417v-18h-417
	c-14.8,0-25.2-4.7-31.9-11.3c-6.7-6.6-10.3-15.6-10.3-25.3c0-10.5,2.8-19.8,8.8-26.5c5.8-6.5,15.9-11.7,33.3-11.7h27l25.9-0.1h29.2
	c8.7,0,15.9-2.9,20.7-8.4c4.6-5.3,6.1-11.8,6.1-17.4c0-6.3-2.4-12.7-7.2-17.4c-4.9-4.8-11.7-7.4-19.6-7.4h-76.5
	c-34.9,0-59.5,10.5-75.3,27.8c-15.6,17.1-21.4,39.7-21.4,61.5c0,22.6,8.4,44.5,24.9,60.8c16.6,16.3,40.9,26.3,71.7,26.3H1920v-18
	h-411.5c-26.8,0-46.3-8.6-59.1-21.2c-12.9-12.6-19.5-29.7-19.5-47.9c0-19,5-36.6,16.7-49.4c11.5-12.7,30.8-21.9,62-21.9h76.5
	C1588.8,122.6,1590.9,123.8,1591.9,124.8z"/>
<path class="st1" d="M1636.3,80.6c12.9,12.6,19.5,29.7,19.5,47.9c0,19-5,36.6-16.7,49.4c-11.5,12.7-30.8,21.9-62,21.9h-76.5
	c-3.8,0-5.9-1.2-7-2.2c-1.1-1.1-1.8-2.7-1.8-4.6c0-2.7,0.7-4.6,1.7-5.6c0.7-0.8,2.5-2.2,7.1-2.2h55.2v-18h-55.2
	c-8.8,0-15.9,2.9-20.7,8.4c-4.6,5.3-6.1,11.9-6.1,17.4c0,6.3,2.4,12.7,7.2,17.4c4.9,4.8,11.7,7.4,19.6,7.4h76.5
	c34.9,0,59.5-10.5,75.3-27.8c15.6-17.1,21.4-39.7,21.4-61.5c0-22.6-8.4-44.5-24.9-60.8c-16.6-16.3-40.9-26.3-71.7-26.3H0v18h1577.1
	C1603.9,59.4,1623.5,68,1636.3,80.6z"/>
</svg>
