<svg viewBox="0 0 500 141.794" xmlns="http://www.w3.org/2000/svg">
	<defs>
	  <clipPath id="clipPath18" clipPathUnits="userSpaceOnUse">
		<path id="path16" d="M 0,841.89 H 1190.55 V 0 H 0 Z"></path>
	  </clipPath>
	</defs>
	<g transform="matrix(0.608268, 0, 0, -0.608268, -119.139244, 345.348969)" id="g10" style="">
	  <g id="g12">
		<g clip-path="url(#clipPath18)" id="g14">
		  <g transform="translate(233.7695,431.2568)" id="g20">
			<path id="path22" style="fill:#231f20;fill-opacity:1;fill-rule:nonzero;stroke:none" d="m 0,0 c -6.809,0 -16.036,3.046 -20.157,9.139 -0.627,0.895 -0.898,1.793 -0.898,2.6 0,2.507 2.33,4.569 4.66,4.569 2.241,0 2.778,-1.256 4.121,-2.599 3.138,-3.315 7.795,-4.75 12.274,-4.75 10.036,0 15.681,5.466 15.681,11.737 0,18.009 -36.285,11.021 -36.285,35.122 0,12.545 10.839,19.446 21.501,19.446 7.528,0 16.306,-4.034 20.965,-10.215 0.717,-0.896 0.986,-1.883 0.986,-2.778 0,-2.419 -2.15,-4.3 -4.569,-4.3 -2.151,0 -3.046,1.254 -4.389,2.596 -3.407,3.496 -8.066,5.735 -12.993,5.735 -7.437,0 -12.544,-4.39 -12.544,-10.484 0,-15.589 36.288,-9.584 36.288,-35.122 C 24.641,7.527 12.813,0 0,0"></path>
		  </g>
		  <g transform="translate(293.1758,466.4697)" id="g24">
			<path id="path26" style="fill:#231f20;fill-opacity:1;fill-rule:nonzero;stroke:none" d="M 0,0 C 8.33,0 15.142,6.72 15.142,15.05 15.142,23.475 8.33,30.193 0,30.193 H -11.469 V 0 Z m 0,-8.961 h -11.469 v -20.876 c 0,-2.957 -2.242,-4.478 -4.48,-4.478 -2.241,0 -4.482,1.521 -4.482,4.478 v 64.511 c 0,2.418 2.062,4.479 4.482,4.479 H 0 c 13.259,0 24.101,-10.75 24.101,-24.013 C 24.101,1.791 13.259,-8.961 0,-8.961"></path>
		  </g>
		  <g transform="translate(367.8994,432.1543)" id="g28">
			<path id="path30" style="fill:#231f20;fill-opacity:1;fill-rule:nonzero;stroke:none" d="m 0,0 h -33.6 c -2.419,0 -4.48,2.06 -4.48,4.479 v 64.51 c 0,2.418 2.061,4.48 4.48,4.48 H 0 c 2.955,0 4.479,-2.24 4.479,-4.48 0,-2.24 -1.524,-4.48 -4.479,-4.48 H -29.119 V 42.825 h 26.43 c 2.958,0 4.48,-2.238 4.48,-4.478 0,-2.241 -1.522,-4.479 -4.48,-4.479 h -26.43 V 8.957 H 0 C 2.955,8.957 4.479,6.719 4.479,4.479 4.479,2.238 2.955,0 0,0"></path>
		  </g>
		  <g transform="translate(429.8105,431.4375)" id="g32">
			<path id="path34" style="fill:#231f20;fill-opacity:1;fill-rule:nonzero;stroke:none" d="M 0,0 C -1.524,0 -3.046,0.896 -4.3,2.865 L -35.032,53.668 V 5.195 c 0,-2.957 -2.24,-4.478 -4.479,-4.478 -2.243,0 -4.481,1.521 -4.481,4.478 v 64.511 c 0,3.314 1.881,5.197 4.031,5.197 1.524,0 3.046,-0.897 4.302,-2.869 L -4.927,21.232 v 48.474 c 0,2.955 2.239,4.48 4.479,4.48 2.24,0 4.478,-1.525 4.478,-4.48 V 5.195 C 4.03,1.881 2.15,0 0,0"></path>
		  </g>
		  <g transform="translate(473.0859,431.2568)" id="g36">
			<path id="path38" style="fill:#231f20;fill-opacity:1;fill-rule:nonzero;stroke:none" d="m 0,0 c -13.797,0 -24.907,11.11 -24.907,24.908 v 25.445 c 0,13.8 11.11,24.911 24.907,24.911 7.169,0 16.575,-3.228 21.235,-9.231 0.717,-0.895 1.075,-1.88 1.075,-2.775 0,-2.511 -2.239,-4.57 -4.66,-4.57 -1.164,0 -2.418,0.537 -3.402,1.791 l -0.719,0.715 C 9.946,64.601 4.929,66.302 0,66.302 c -8.778,0 -15.947,-7.167 -15.947,-15.949 V 24.908 c 0,-8.78 7.169,-15.949 15.947,-15.949 8.782,0 15.949,7.169 15.949,15.949 v 7.884 H 0.716 c -2.954,0 -4.479,2.242 -4.479,4.48 0,2.241 1.525,4.481 4.479,4.481 H 20.43 c 2.417,0 4.478,-2.062 4.478,-4.481 V 24.908 C 24.908,11.11 13.798,0 0,0"></path>
		  </g>
		  <g transform="translate(550.4082,432.1543)" id="g40">
			<path id="path42" style="fill:#231f20;fill-opacity:1;fill-rule:nonzero;stroke:none" d="m 0,0 h -33.598 c -2.421,0 -4.48,2.06 -4.48,4.479 v 64.51 c 0,2.418 2.059,4.48 4.48,4.48 H 0 c 2.957,0 4.479,-2.24 4.479,-4.48 0,-2.24 -1.522,-4.48 -4.479,-4.48 H -29.118 V 42.825 h 26.43 c 2.957,0 4.481,-2.238 4.481,-4.478 0,-2.241 -1.524,-4.479 -4.481,-4.479 h -26.43 V 8.957 H 0 C 2.957,8.957 4.479,6.719 4.479,4.479 4.479,2.238 2.957,0 0,0"></path>
		  </g>
		  <g transform="translate(588.7549,466.4697)" id="g44">
			<path id="path46" style="fill:#231f20;fill-opacity:1;fill-rule:nonzero;stroke:none" d="M 0,0 C 8.156,0 15.145,6.63 15.145,15.05 15.145,23.475 8.335,30.193 0,30.193 H -11.468 V 0 Z m 19.625,-34.405 c -1.346,0 -2.779,0.627 -3.676,2.149 L 1.166,-8.961 h -12.634 v -20.876 c 0,-2.957 -2.238,-4.478 -4.479,-4.478 -2.241,0 -4.479,1.521 -4.479,4.478 v 64.511 c 0,2.418 2.06,4.479 4.479,4.479 H 0 c 13.262,0 24.104,-10.75 24.104,-24.013 0,-9.674 -5.645,-17.919 -13.799,-21.771 l 13.17,-20.786 c 0.539,-0.896 0.807,-1.701 0.807,-2.51 0,-2.509 -2.329,-4.478 -4.657,-4.478"></path>
		  </g>
		  <g transform="translate(649.5938,431.2568)" id="g48">
			<path id="path50" style="fill:#231f20;fill-opacity:1;fill-rule:nonzero;stroke:none" d="m 0,0 c -13.801,0 -24.911,11.11 -24.911,24.908 v 25.445 c 0,13.8 11.11,24.911 24.911,24.911 7.167,0 16.574,-3.228 21.233,-9.231 0.717,-0.895 1.075,-1.88 1.075,-2.775 0,-2.511 -2.241,-4.57 -4.658,-4.57 -1.166,0 -2.419,0.537 -3.406,1.791 l -0.717,0.715 C 9.944,64.601 4.927,66.302 0,66.302 c -8.782,0 -15.949,-7.167 -15.949,-15.949 V 24.908 c 0,-8.78 7.167,-15.949 15.949,-15.949 8.778,0 15.947,7.169 15.947,15.949 v 7.884 H 0.716 c -2.958,0 -4.481,2.242 -4.481,4.48 0,2.241 1.523,4.481 4.481,4.481 h 19.712 c 2.417,0 4.479,-2.062 4.479,-4.481 V 24.908 C 24.907,11.11 13.796,0 0,0"></path>
		  </g>
		  <g transform="translate(710.3408,486.9854)" id="g52">
			<path id="path54" style="fill:#231f20;fill-opacity:1;fill-rule:nonzero;stroke:none" d="M 0,0 -7.886,-23.832 H 7.975 Z m 21.412,-54.831 c -1.701,0 -3.404,0.895 -4.12,3.044 l -6.361,18.995 h -21.773 l -6.361,-18.995 c -0.717,-2.149 -2.42,-3.044 -4.123,-3.044 -2.327,0 -4.657,1.701 -4.657,4.3 0,0.537 0.088,1.076 0.268,1.613 l 21.502,64.509 c 0.898,2.51 2.51,3.764 4.213,3.764 1.701,0 3.404,-1.254 4.299,-3.764 l 21.505,-64.509 c 0.178,-0.537 0.268,-1.076 0.268,-1.613 0,-2.599 -2.33,-4.3 -4.66,-4.3"></path>
		  </g>
		  <g transform="translate(767.3252,431.2568)" id="g56">
			<path id="path58" style="fill:#231f20;fill-opacity:1;fill-rule:nonzero;stroke:none" d="m 0,0 c -6.809,0 -16.039,3.046 -20.16,9.139 -0.627,0.895 -0.895,1.793 -0.895,2.6 0,2.507 2.329,4.569 4.658,4.569 2.24,0 2.777,-1.256 4.122,-2.599 3.136,-3.315 7.794,-4.75 12.275,-4.75 10.035,0 15.68,5.466 15.68,11.737 0,18.009 -36.287,11.021 -36.287,35.122 0,12.545 10.841,19.446 21.502,19.446 7.527,0 16.307,-4.034 20.967,-10.215 0.716,-0.896 0.985,-1.883 0.985,-2.778 0,-2.419 -2.151,-4.3 -4.571,-4.3 -2.148,0 -3.046,1.254 -4.388,2.596 -3.405,3.496 -8.065,5.735 -12.993,5.735 -7.436,0 -12.543,-4.39 -12.543,-10.484 0,-15.589 36.288,-9.584 36.288,-35.122 C 24.64,7.527 12.813,0 0,0"></path>
		  </g>
		  <g transform="translate(825.5645,431.2568)" id="g60">
			<path id="path62" style="fill:#231f20;fill-opacity:1;fill-rule:nonzero;stroke:none" d="m 0,0 c -6.809,0 -16.039,3.046 -20.159,9.139 -0.627,0.895 -0.896,1.793 -0.896,2.6 0,2.507 2.33,4.569 4.658,4.569 2.241,0 2.778,-1.256 4.123,-2.599 3.135,-3.315 7.795,-4.75 12.274,-4.75 10.036,0 15.681,5.466 15.681,11.737 0,18.009 -36.287,11.021 -36.287,35.122 0,12.545 10.84,19.446 21.502,19.446 7.527,0 16.306,-4.034 20.966,-10.215 0.717,-0.896 0.986,-1.883 0.986,-2.778 0,-2.419 -2.152,-4.3 -4.571,-4.3 -2.149,0 -3.046,1.254 -4.389,2.596 -3.405,3.496 -8.065,5.735 -12.992,5.735 -7.436,0 -12.543,-4.39 -12.543,-10.484 0,-15.589 36.287,-9.584 36.287,-35.122 C 24.64,7.527 12.813,0 0,0"></path>
		  </g>
		  <g transform="translate(902.6201,432.1543)" id="g64">
			<path id="path66" style="fill:#231f20;fill-opacity:1;fill-rule:nonzero;stroke:none" d="m 0,0 h -33.6 c -2.419,0 -4.48,2.06 -4.48,4.479 v 64.51 c 0,2.418 2.061,4.48 4.48,4.48 H 0 c 2.957,0 4.479,-2.24 4.479,-4.48 0,-2.24 -1.522,-4.48 -4.479,-4.48 H -29.12 V 42.825 h 26.432 c 2.958,0 4.479,-2.238 4.479,-4.478 0,-2.241 -1.521,-4.479 -4.479,-4.479 H -29.12 V 8.957 H 0 C 2.957,8.957 4.479,6.719 4.479,4.479 4.479,2.238 2.957,0 0,0"></path>
		  </g>
		  <g transform="translate(962.5635,517.1465)" id="g68">
			<path id="path70" style="fill:#ed1441;fill-opacity:1;fill-rule:nonzero;stroke:none" d="m 0,0 c -3.787,0 -6.855,3.068 -6.855,6.855 v 16.996 c 0,3.782 3.068,6.855 6.855,6.855 3.785,0 6.855,-3.073 6.855,-6.855 V 6.855 C 6.855,3.068 3.785,0 0,0"></path>
		  </g>
		  <g transform="translate(978.0283,505.9102)" id="g72">
			<path id="path74" style="fill:#ed1441;fill-opacity:1;fill-rule:nonzero;stroke:none" d="m 0,0 c -2.889,0 -5.577,1.843 -6.518,4.736 -1.17,3.603 0.8,7.469 4.4,8.641 l 16.163,5.25 c 3.601,1.164 7.468,-0.798 8.638,-4.399 1.172,-3.602 -0.802,-7.468 -4.4,-8.641 L 2.121,0.337 C 1.414,0.107 0.702,0 0,0"></path>
		  </g>
		  <g transform="translate(947.0986,505.9102)" id="g76">
			<path id="path78" style="fill:#ed1441;fill-opacity:1;fill-rule:nonzero;stroke:none" d="m 0,0 c -0.702,0 -1.414,0.107 -2.121,0.337 l -16.158,5.25 c -3.598,1.173 -5.572,5.041 -4.4,8.641 1.17,3.601 5.034,5.567 8.638,4.399 l 16.159,-5.25 c 3.6,-1.172 5.57,-5.038 4.4,-8.641 C 5.578,1.843 2.89,0 0,0"></path>
		  </g>
		  <g transform="translate(943.0107,473.9844)" id="g80">
			<path id="path82" style="fill:#ed1441;fill-opacity:1;fill-rule:nonzero;stroke:none" d="m 0,0 c -1.398,0 -2.809,0.426 -4.025,1.309 -3.063,2.226 -3.741,6.513 -1.514,9.572 l 9.991,13.752 c 2.226,3.064 6.516,3.739 9.576,1.513 3.058,-2.226 3.738,-6.511 1.512,-9.572 L 5.551,2.823 C 4.208,0.979 2.118,0 0,0"></path>
		  </g>
		  <g transform="translate(982.1143,473.9844)" id="g84">
			<path id="path86" style="fill:#ed1441;fill-opacity:1;fill-rule:nonzero;stroke:none" d="m 0,0 c -2.12,0 -4.208,0.979 -5.551,2.827 l -9.987,13.747 c -2.224,3.065 -1.546,7.346 1.517,9.576 3.064,2.218 7.349,1.547 9.576,-1.522 L 5.541,10.881 C 7.766,7.818 7.088,3.535 4.023,1.307 2.809,0.426 1.398,0 0,0"></path>
		  </g>
		  <g transform="translate(225.4004,387.957)" id="g88">
			<path id="path90" style="fill:#231f20;fill-opacity:1;fill-rule:nonzero;stroke:none" d="m 0,0 -5.919,-1.333 c -2.918,-0.665 -5.043,-2.293 -5.043,-4.751 0,-2.878 2.291,-4.668 5.502,-4.668 3.085,0 5.46,2.124 5.46,5.083 z m -5.46,-12.421 c -3.793,0 -7.17,2.251 -7.17,6.337 0,3.709 3.001,5.71 6.462,6.46 L 0,1.709 V 3.96 c 0,3.044 -1.793,5.087 -5.378,5.087 -3.875,0 -4.461,-2.503 -5.377,-2.503 -0.416,0 -0.834,0.334 -0.834,0.794 0,0.374 0.293,0.708 0.501,0.958 1.459,1.707 3.585,2.418 5.71,2.418 4.503,0 7.045,-2.794 7.045,-6.754 v -9.629 c 0,-4.001 -3.252,-6.752 -7.127,-6.752"></path>
		  </g>
		  <g transform="translate(241.0264,375.5361)" id="g92">
			<path id="path94" style="fill:#231f20;fill-opacity:1;fill-rule:nonzero;stroke:none" d="m 0,0 c -4.253,0 -7.713,3.459 -7.713,7.712 v 14.171 c 0,0.541 0.418,0.834 0.835,0.834 0.417,0 0.834,-0.293 0.834,-0.834 V 7.712 c 0,-3.335 2.71,-6.043 6.044,-6.043 3.335,0 6.043,2.708 6.043,6.043 v 14.171 c 0,0.541 0.418,0.834 0.834,0.834 0.418,0 0.835,-0.293 0.835,-0.834 V 7.712 C 7.712,3.459 4.252,0 0,0"></path>
		  </g>
		  <g transform="translate(260.5283,375.5361)" id="g96">
			<path id="path98" style="fill:#231f20;fill-opacity:1;fill-rule:nonzero;stroke:none" d="m 0,0 c -2,0 -4.794,0.875 -6.003,2.711 -0.124,0.166 -0.167,0.333 -0.167,0.457 0,0.458 0.419,0.833 0.877,0.833 0.458,0 0.625,-0.332 0.875,-0.623 C -3.293,2.21 -1.583,1.669 0,1.669 c 3.378,0 5.669,2 5.669,4.501 0,6.336 -11.713,4.086 -11.713,11.42 0,3.626 3.169,5.545 6.337,5.545 2.21,0 4.794,-1.166 6.003,-3.085 0.124,-0.167 0.167,-0.332 0.167,-0.458 0,-0.46 -0.46,-0.834 -0.875,-0.834 -0.501,0 -0.668,0.374 -0.961,0.708 -1.082,1.251 -2.625,2.002 -4.334,2.002 -2.625,0 -4.668,-1.502 -4.668,-3.878 0,-5.67 11.713,-3.541 11.713,-11.42 C 7.338,2.417 3.96,0 0,0"></path>
		  </g>
		  <g transform="translate(287.2441,390.96)" id="g100">
			<path id="path102" style="fill:#231f20;fill-opacity:1;fill-rule:nonzero;stroke:none" d="m 0,0 c 0,3.334 -2.709,6.044 -6.046,6.044 -3.333,0 -6.043,-2.71 -6.043,-6.044 v -7.712 c 0,-3.335 2.71,-6.043 6.043,-6.043 3.337,0 6.046,2.708 6.046,6.043 z m -6.046,-15.424 c -4.251,0 -7.71,3.459 -7.71,7.712 V 15.84 c 0,0.541 0.417,0.832 0.832,0.832 0.419,0 0.835,-0.291 0.835,-0.832 V 4.793 c 1.418,1.792 3.585,2.918 6.043,2.918 4.253,0 7.712,-3.46 7.712,-7.711 v -7.712 c 0,-4.253 -3.459,-7.712 -7.712,-7.712"></path>
		  </g>
		  <g transform="translate(295.2002,397.4189)" id="g104">
			<path id="path106" style="fill:#231f20;fill-opacity:1;fill-rule:nonzero;stroke:none" d="M 0,0 C 0,0.541 0.417,0.834 0.832,0.834 1.252,0.834 1.666,0.541 1.666,0 v -20.634 c 0,-0.541 -0.414,-0.832 -0.834,-0.832 -0.415,0 -0.832,0.291 -0.832,0.832 z m 0.832,9.796 c 0.711,0 1.295,-0.582 1.295,-1.29 0,-0.71 -0.584,-1.294 -1.295,-1.294 -0.708,0 -1.29,0.584 -1.29,1.294 0,0.708 0.582,1.29 1.29,1.29"></path>
		  </g>
		  <g transform="translate(307.1592,375.5361)" id="g108">
			<path id="path110" style="fill:#231f20;fill-opacity:1;fill-rule:nonzero;stroke:none" d="M 0,0 C -0.334,0 -0.708,0.208 -0.957,0.374 -3,1.709 -3.793,4.167 -3.793,6.544 v 24.72 c 0,0.541 0.417,0.832 0.834,0.832 0.417,0 0.834,-0.291 0.834,-0.832 V 6.544 C -2.125,4.878 -1.5,2.336 0.252,1.626 0.627,1.459 0.793,1.168 0.793,0.834 0.793,0.417 0.46,0 0,0"></path>
		  </g>
		  <g transform="translate(325.874,390.96)" id="g112">
			<path id="path114" style="fill:#231f20;fill-opacity:1;fill-rule:nonzero;stroke:none" d="M 0,0 C 0,3.334 -2.709,6.044 -6.046,6.044 -9.379,6.044 -12.09,3.334 -12.09,0 v -7.712 c 0,-3.335 2.711,-6.043 6.044,-6.043 3.337,0 6.046,2.708 6.046,6.043 z m -6.046,-15.424 c -4.251,0 -7.71,3.459 -7.71,7.712 V 0 c 0,4.251 3.459,7.711 7.71,7.711 2.46,0 4.627,-1.126 6.046,-2.918 V 15.84 c 0,0.541 0.417,0.832 0.832,0.832 0.419,0 0.834,-0.291 0.834,-0.832 V -7.712 c 0,-4.253 -3.459,-7.712 -7.712,-7.712"></path>
		  </g>
		  <g transform="translate(341.707,375.5361)" id="g116">
			<path id="path118" style="fill:#231f20;fill-opacity:1;fill-rule:nonzero;stroke:none" d="m 0,0 c -4.251,0 -7.71,3.459 -7.71,7.712 v 14.171 c 0,0.541 0.417,0.834 0.832,0.834 0.419,0 0.834,-0.293 0.834,-0.834 V 7.712 c 0,-3.335 2.711,-6.043 6.044,-6.043 3.337,0 6.046,2.708 6.046,6.043 v 14.171 c 0,0.541 0.417,0.834 0.832,0.834 0.419,0 0.834,-0.293 0.834,-0.834 V 7.712 C 7.712,3.459 4.253,0 0,0"></path>
		  </g>
		  <g transform="translate(370.4639,375.9531)" id="g120">
			<path id="path122" style="fill:#231f20;fill-opacity:1;fill-rule:nonzero;stroke:none" d="m 0,0 c -0.418,0 -0.834,0.291 -0.834,0.832 v 14.175 c 0,3.334 -2.709,6.044 -6.044,6.044 -3.333,0 -6.044,-2.71 -6.044,-6.044 V 0.832 C -12.922,0.291 -13.339,0 -13.756,0 -14.173,0 -14.59,0.291 -14.59,0.832 v 14.175 c 0,4.251 3.459,7.711 7.712,7.711 4.253,0 7.712,-3.46 7.712,-7.711 V 0.832 C 0.834,0.291 0.417,0 0,0"></path>
		  </g>
		  <g transform="translate(391.3008,390.96)" id="g124">
			<path id="path126" style="fill:#231f20;fill-opacity:1;fill-rule:nonzero;stroke:none" d="m 0,0 c 0,3.334 -2.711,6.044 -6.044,6.044 -3.335,0 -6.043,-2.71 -6.043,-6.044 v -6.877 c 0,-3.338 2.708,-6.046 6.043,-6.046 3.333,0 6.044,2.708 6.044,6.046 z m -6.044,-23.344 c -2.169,0 -5.128,0.918 -6.463,2.878 -0.081,0.166 -0.124,0.333 -0.124,0.457 0,0.458 0.417,0.833 0.875,0.833 0.458,0 0.625,-0.375 0.877,-0.666 1.25,-1.251 3.083,-1.833 4.835,-1.833 3.333,0 6.044,2.708 6.044,6.043 v 3.96 c -1.417,-1.792 -3.586,-2.918 -6.044,-2.918 -4.253,0 -7.712,3.46 -7.712,7.713 V 0 c 0,4.251 3.459,7.711 7.712,7.711 4.251,0 7.71,-3.46 7.71,-7.711 v -15.632 c 0,-4.252 -3.459,-7.712 -7.71,-7.712"></path>
		  </g>
		  <g transform="translate(435.0586,375.9531)" id="g128">
			<path id="path130" style="fill:#231f20;fill-opacity:1;fill-rule:nonzero;stroke:none" d="M 0,0 C -0.417,0 -0.835,0.291 -0.835,0.832 V 15.84 c 0,2.875 -2.334,5.211 -5.209,5.211 -2.877,0 -5.211,-2.336 -5.211,-5.211 V 0.832 c 0,-0.582 -0.418,-0.875 -0.832,-0.875 -0.42,0 -0.835,0.293 -0.835,0.875 V 15.84 c 0,2.875 -2.334,5.211 -5.209,5.211 -2.878,0 -5.212,-2.336 -5.212,-5.211 V 0.832 C -23.343,0.291 -23.76,0 -24.177,0 c -0.417,0 -0.832,0.291 -0.832,0.832 V 15.84 c 0,3.793 3.083,6.878 6.878,6.878 2.625,0 4.876,-1.459 6.044,-3.584 1.166,2.125 3.418,3.584 6.043,3.584 3.793,0 6.878,-3.085 6.878,-6.878 V 0.832 C 0.834,0.291 0.417,0 0,0"></path>
		  </g>
		  <g transform="translate(442.3877,397.4189)" id="g132">
			<path id="path134" style="fill:#231f20;fill-opacity:1;fill-rule:nonzero;stroke:none" d="M 0,0 C 0,0.541 0.415,0.834 0.834,0.834 1.25,0.834 1.669,0.541 1.669,0 v -20.634 c 0,-0.541 -0.419,-0.832 -0.835,-0.832 -0.419,0 -0.834,0.291 -0.834,0.832 z m 0.834,9.796 c 0.709,0 1.291,-0.582 1.291,-1.29 0,-0.71 -0.582,-1.294 -1.291,-1.294 -0.708,0 -1.294,0.584 -1.294,1.294 0,0.708 0.586,1.29 1.294,1.29"></path>
		  </g>
		  <g transform="translate(463.1846,376.9521)" id="g136">
			<path id="path138" style="fill:#231f20;fill-opacity:1;fill-rule:nonzero;stroke:none" d="m 0,0 c -1.209,-0.875 -2.668,-1.416 -4.168,-1.416 -3.459,0 -5.92,2.377 -5.92,5.462 v 15.589 h -4.209 c -0.542,0 -0.835,0.417 -0.835,0.832 0,0.419 0.293,0.834 0.835,0.834 h 4.209 v 5.71 c 0,0.544 0.418,0.835 0.833,0.835 0.419,0 0.834,-0.291 0.834,-0.835 v -5.71 h 7.796 c 0.541,0 0.832,-0.415 0.832,-0.834 0,-0.415 -0.291,-0.832 -0.832,-0.832 H -8.421 V 4.046 c 0,-2.084 1.626,-3.793 4.253,-3.793 1.125,0 2.544,0.5 3.376,1.29 0.21,0.167 0.376,0.209 0.584,0.209 0.458,0 0.875,-0.417 0.875,-0.875 C 0.667,0.501 0.293,0.253 0,0"></path>
		  </g>
		  <g transform="translate(491.6475,375.9531)" id="g140">
			<path id="path142" style="fill:#231f20;fill-opacity:1;fill-rule:nonzero;stroke:none" d="m 0,0 h -13.381 c -0.541,0 -0.875,0.291 -0.875,0.708 0,0.167 0.041,0.377 0.207,0.584 L -1.668,20.634 H -12.42 c -0.544,0 -0.835,0.417 -0.835,0.832 0,0.419 0.291,0.834 0.835,0.834 h 12.254 c 0.581,0 0.915,-0.293 0.915,-0.708 0,-0.167 -0.081,-0.374 -0.208,-0.584 L -11.839,1.667 H 0 C 0.582,1.667 0.834,1.252 0.834,0.832 0.834,0.417 0.582,0 0,0"></path>
		  </g>
		  <g transform="translate(505.3975,375.5361)" id="g144">
			<path id="path146" style="fill:#231f20;fill-opacity:1;fill-rule:nonzero;stroke:none" d="m 0,0 c -4.251,0 -7.71,3.459 -7.71,7.712 v 14.171 c 0,0.541 0.415,0.834 0.832,0.834 0.417,0 0.834,-0.293 0.834,-0.834 V 7.712 c 0,-3.335 2.709,-6.043 6.044,-6.043 3.335,0 6.043,2.708 6.043,6.043 v 14.171 c 0,0.541 0.418,0.834 0.835,0.834 0.417,0 0.832,-0.293 0.832,-0.834 V 7.712 C 7.71,3.459 4.251,0 0,0"></path>
		  </g>
		  <g transform="translate(533.7773,375.9531)" id="g148">
			<path id="path150" style="fill:#231f20;fill-opacity:1;fill-rule:nonzero;stroke:none" d="M 0,0 C -0.248,0 -0.498,0.084 -0.665,0.334 L -8.794,11.172 -12.545,6.795 V 0.832 C -12.545,0.291 -12.962,0 -13.379,0 c -0.417,0 -0.833,0.291 -0.833,0.832 v 30.015 c 0,0.541 0.416,0.832 0.833,0.832 0.417,0 0.834,-0.291 0.834,-0.832 V 9.338 l 10.836,12.669 c 0.167,0.21 0.419,0.293 0.627,0.293 0.417,0 0.834,-0.374 0.834,-0.834 0,-0.167 -0.043,-0.374 -0.21,-0.541 L -7.667,12.464 0.667,1.333 C 0.794,1.166 0.835,0.999 0.835,0.832 0.835,0.377 0.419,0 0,0"></path>
		  </g>
		  <g transform="translate(546.6943,375.5361)" id="g152">
			<path id="path154" style="fill:#231f20;fill-opacity:1;fill-rule:nonzero;stroke:none" d="m 0,0 c -4.252,0 -7.712,3.459 -7.712,7.712 v 14.171 c 0,0.541 0.417,0.834 0.835,0.834 0.417,0 0.834,-0.293 0.834,-0.834 V 7.712 c 0,-3.335 2.711,-6.043 6.043,-6.043 3.336,0 6.044,2.708 6.044,6.043 v 14.171 c 0,0.541 0.417,0.834 0.835,0.834 0.416,0 0.834,-0.293 0.834,-0.834 V 7.712 C 7.713,3.459 4.254,0 0,0"></path>
		  </g>
		  <g transform="translate(575.4512,375.9531)" id="g156">
			<path id="path158" style="fill:#231f20;fill-opacity:1;fill-rule:nonzero;stroke:none" d="m 0,0 c -0.417,0 -0.834,0.291 -0.834,0.832 v 14.175 c 0,3.334 -2.708,6.044 -6.044,6.044 -3.333,0 -6.043,-2.71 -6.043,-6.044 V 0.832 C -12.921,0.291 -13.338,0 -13.755,0 -14.173,0 -14.59,0.291 -14.59,0.832 v 14.175 c 0,4.251 3.46,7.711 7.712,7.711 4.253,0 7.713,-3.46 7.713,-7.711 V 0.832 C 0.835,0.291 0.417,0 0,0"></path>
		  </g>
		  <g transform="translate(594.3271,405.4648)" id="g160">
			<path id="path162" style="fill:#231f20;fill-opacity:1;fill-rule:nonzero;stroke:none" d="m 0,0 c -0.167,0 -0.291,0.041 -0.458,0.126 -0.625,0.375 -1.54,0.79 -2.668,0.79 -2.625,0 -4.251,-1.71 -4.251,-3.793 v -4.335 h 6.668 c 0.542,0 0.835,-0.415 0.835,-0.834 0,-0.415 -0.293,-0.832 -0.835,-0.832 H -7.377 V -28.68 c 0,-0.541 -0.417,-0.832 -0.834,-0.832 -0.417,0 -0.832,0.291 -0.832,0.832 v 19.802 h -4.213 c -0.541,0 -0.832,0.417 -0.832,0.832 0,0.419 0.291,0.834 0.832,0.834 h 4.213 v 4.335 c 0,3.085 2.458,5.461 5.917,5.461 1.502,0 2.751,-0.541 3.545,-1.001 C 0.71,1.416 0.834,1.125 0.834,0.875 0.834,0.46 0.459,0 0,0"></path>
		  </g>
		  <g transform="translate(610.9131,376.9521)" id="g164">
			<path id="path166" style="fill:#231f20;fill-opacity:1;fill-rule:nonzero;stroke:none" d="m 0,0 c -1.209,-0.875 -2.668,-1.416 -4.17,-1.416 -3.459,0 -5.917,2.377 -5.917,5.462 v 15.589 h -4.21 c -0.543,0 -0.832,0.417 -0.832,0.832 0,0.419 0.289,0.834 0.832,0.834 h 4.21 v 5.71 c 0,0.544 0.417,0.835 0.834,0.835 0.415,0 0.835,-0.291 0.835,-0.835 v -5.71 h 7.793 c 0.541,0 0.834,-0.415 0.834,-0.834 0,-0.415 -0.293,-0.832 -0.834,-0.832 H -8.418 V 4.046 c 0,-2.084 1.623,-3.793 4.248,-3.793 1.128,0 2.544,0.5 3.378,1.29 0.208,0.167 0.375,0.209 0.585,0.209 0.457,0 0.874,-0.417 0.874,-0.875 C 0.667,0.501 0.291,0.253 0,0"></path>
		  </g>
		</g>
	  </g>
	</g>
  </svg>